    <svg version="1.1" id="Layer_1" xmlns="http://www.w3.org/2000/svg" x="0" y="0" viewBox="0 0 992 439.9" xml:space="preserve"><style>.st0{fill:#ce9b9b}.st1{fill:#ffbd9c}.st2{fill:#362349}.st3{fill:#563b6b}.st4{fill:#d89682}.st5{fill:#262b40}.st6{fill:#00053f}.st7{opacity:.8}.st8{fill:#fff}.st9{fill:#f8bd7a}.st10{fill:#18214d}.st12{fill:#7e2e3b}.st13{opacity:.35}.st14{fill:#561a25}.st16{opacity:.24}.st18{fill:#040055}.st21{fill:#00b493}.st22{fill:#009198}.st23{fill:#fca054}.st24{fill:#9e6235}.st25{fill:#0c0c0c}.st26{fill:#c8bdd1}.st27{fill:#b56326}.st28{fill:#383838}.st29{fill:#161616}.st30{fill:#ee5050}.st31{fill:#c48362}.st32{fill:#2d2d2d}.st33{fill:#694582}.st35{fill:#663a3a}.st36{fill:#3f2222}.st40{fill:#d35050}</style><path class="st0" d="M274 437.6H69.9c-.4 0-.7.3-.7.7 0 .4.3.7.7.7h204.2v-.2c0-.3 0-.8-.1-1.2z"/><path class="st1" d="M229 348.7c-.3-.2 9-6.3 0-7.9-8.1-1.5 8.2-33.5 8.2-33.5l-9-24s-14.9 42-21.3 55c-1.3 2.6.1 9.5 2.5 11.1 1.3.8 2.8 1.8 4.5 2.9 2.2-4.6 13 1.2 15.1-3.6z"/><path class="st1" d="M221.8 333.1c-2.1 4.8-4.3 15.7-6.4 20.4 9.8 6.3 45.2 25.6 45.2 25.6l3.9-10.7c-.1 0-26.4-33.8-42.7-35.3z"/><path class="st1" d="M262.7 286.4l-2.1 3.8-24.3 44.6-.4.7-.6 1s-2.5 20-4.6 28.2c-2.6 10.5-19.3 44.9-19.3 44.9l-7.6 20-8.9-8.7 32.4-137.1.8-2.6c.1-.1 34.9 4.3 34.6 5.2z"/><path class="st2" d="M196.2 434.2h11.3v4.9h-11.3z"/><path class="st3" d="M198.3 422.7c-3.9 1.8-7.6 3.9-11 6.4-3.2 2.4-7.9 5.2-12.4 5.4-9.2.3-9.9 4.5-5.8 4.7 3.2.2 9.9.5 18 0 7-.5 14.1-1.8 17.8-2.1 1.5-.1 2.5-.7 2.9-3.1.6-3.8 0-7.3-2.1-9.7-1.8-2-4.7-2.7-7.2-1.6h-.2z"/><path class="st1" d="M205.7 424.7c-1.8 4.9-11.3 11-33.6 10 0 0 22-6.2 22.9-13.8.2-1.6 7.2.9 10.2 2 .7.2.8 1 .5 1.8z"/><path transform="rotate(-.573 276.375 372.039) scale(.99995)" class="st2" d="M273.9 366.4h4.9v11.3h-4.9z"/><path class="st3" d="M262.5 375.8c1.8 3.9 3.9 7.6 6.5 10.9 2.4 3.2 5.3 7.9 5.5 12.3.4 9.2 4.6 9.9 4.7 5.8.1-3.2.4-9.9-.2-18-.5-7-1.9-14.1-2.3-17.8-.1-1.5-.7-2.5-3.2-2.9-3.8-.6-7.3.1-9.6 2.2-2 1.8-2.6 4.8-1.5 7.2l.1.3z"/><path class="st1" d="M264.4 368.2c4.9 1.8 11.1 11.4 10.4 33.6 0 0-7.2-18.9-14.1-22.7-1.4-.8 1.1-8.4 2.2-11.4.3-.7.8.3 1.5.5z"/><path class="st4" d="M211.5 351.1c-.2-.1-.4-.2-.3-.4l16.2-66.9c0-.2.2-.3.4-.2.2 0 .3.2.2.4l-16.2 66.9c0 .1-.1.2-.3.2z"/><path class="st5" d="M278 223.7c.9 13.6-10.5 24.4-24.1 24.1-13.6-.4-23.2-11.8-22.9-25.4.1-4 1.3-14.2 2.8-19.9 3.6-13.8 10.6-24.3 20.2-24.1 13.6.3 23.1 31 24 45.3z"/><path class="st5" d="M277.9 228c-5.2 46.7-20.2 67.6-20.2 67.6l-31.1-5.4-.4-.1h-.4v-.6l.1-1.6 5-65.5c.1-.1 48.3-6.4 47 5.6z"/><path class="st6" d="M226.1 290.2s0-.1 0 0c-.3-.1-.4-.2-.3-.4.1-.3 7.2-27.6 8.4-36.3 0-.2.2-.3.4-.3s.3.2.3.4c-1.2 8.7-8.4 36.1-8.4 36.3-.1.2-.2.3-.4.3z"/><path class="st4" d="M219.4 334.5c-.2 0-.3-.1-.3-.3 0-.2.1-.3.3-.3 3.6 0 5.1-7.8 5.1-7.9 0-.2.2-.3.4-.3s.3.2.3.4c-.1.4-1.6 8.4-5.8 8.4z"/><path class="st6" d="M252.7 214.9c-.5 0-1-.1-1.4-.4-.6-.4-1.1-1-1.3-1.7l-3.8-15c0-.2.1-.3.2-.4l13.5-3.4h.2c.1 0 .1.1.1.2l3.8 15c.2.7.1 1.4-.3 2.1-.4.6-1 1.1-1.7 1.3l-.1-.3.1.3-8.8 2.2c-.1 0-.3.1-.5.1zm-5.8-16.9l3.7 14.6c.1.5.5 1 1 1.3s1 .4 1.6.2l8.8-2.2c.5-.1 1-.5 1.3-1s.4-1 .2-1.6l-3.7-14.6-12.9 3.3z"/><path class="st6" d="M257.2 213.6c-1.2 0-2.3-.8-2.7-2.1l-3.8-15v-.2c0-.1.1-.1.2-.1l13.5-3.4c.2 0 .3.1.4.2l3.8 15c.4 1.5-.5 3-2 3.3l-.1-.3.1.3-8.8 2.2c-.2.1-.4.1-.6.1zm-5.8-16.8l3.7 14.6c.3 1.1 1.4 1.8 2.5 1.5l8.8-2.2c.5-.1 1-.5 1.3-1s.4-1 .2-1.6l-3.7-14.6-12.8 3.3z"/><g class="st7"><path transform="rotate(-44.349 130.68 224.726)" class="st8" d="M130 219.9h1.3v9.7H130z"/><path transform="rotate(-43.578 130.612 224.66)" class="st8" d="M125.8 224h9.7v1.3h-9.7z"/></g><g><path class="st9" d="M197.5 158.4l-5-3.5 3.8-4.6 29.3 1.5.2 25.8z"/><path class="st1" d="M182.4 139.3s3.1.8 5.7 2.8c1.3 1 2.8 1.8 4.1 2.3 1.6.7 3 1.9 4 3.3l3.5 2.8s-1.6 7.1-2.2 7.9c-.8 1-3.3-1-3.3-1l-5.4-2.1-5.5-13.9-.9-2.1z"/><path class="st10" d="M196 153.3l-8.8 9.8s-14-14.3-18.1-18.4c-.6-.6-.6-1.6.1-2.1l8.1-7.4c.4-.4 1.2-.4 1.6 0l1 1 13.3 13.4 1.6 1.6 1.1 1.1c.3.3.3.7.1 1z"/><path d="M194.9 151.3l-7.8 8.7-15.8-15.5 8.7-8.2 13.3 13.4 1.6 1.6z" fill="#fff1e9"/><path class="st10" d="M169.7 142.1l18.9 18.5-2.1 1.8-17.3-17.8c-.6-.6-.6-1.6.1-2.1l.4-.4z"/><path class="st12" d="M226.4 53.2c2.6 2.5 6 3.7 9.2 3.5 2.2-.2 4.2-1 5.8-2.6.8-.9 1.4-1.8 1.7-2.8 1.2-3.5-.5-7.6-3.8-11.2-6.2-6.8-13.1-4.8-17.1-1.4-.4.3-.7.6-1 .9-.6.6-1 1.3-1.2 2.1-1.1 3.5 2.6 7.9 6.4 11.5z"/><path d="M219.9 41.6l1.5 2.8 14.1 12.3c2.2-.2 4.2-1 5.8-2.6.8-.9 1.4-1.8 1.7-2.8l-.3-.6c-4.6-8.6-14.9-11.2-20.6-12-.4.3-.7.6-1 .9-.6.6-1 1.3-1.2 2z"/><path class="st12" d="M204.9 70.3c5.2 10.6 15.5 16.6 24.5 14.7 1.3-.3 2.6-.7 3.9-1.3 5.9-2.9 9.4-9.1 9.9-16.3.3-4.6-.6-9.6-2.9-14.4-5.9-12.2-18.7-16.6-28.6-12.1-18.9 8.6-12.8 17.2-6.8 29.4z"/><path d="M229.4 85c1.3-.3 2.6-.7 3.9-1.3 5.9-2.9 9.4-9.1 9.9-16.3-5 4.1-12.4 8.1-12.4 8.1s-1.1 7.4-1.4 9.5z"/><path class="st1" d="M225.4 115.5c-.1 1.4 15.8-8.7 21.8-12.1 1-.6 1.1-1.9.2-2.6-4.6-3.6-15.4-13.7-14.8-24.8.3-4.6-18.1 8.8-18.1 8.8 14.6 14.9 11.7 22.2 10.9 30.7z"/><path class="st4" d="M220.9 92c.3-.2 7.7-5.9 7.2-3.9-.4 1.6-6.1 5.9-6.1 5.9l-1.1-2z"/><path class="st1" d="M202.1 76.9c1.5 3.1 3.9 6.6 6.1 9.6l1.8 2.4c2.6 3.3 4.7 5.7 4.7 5.7s12.2-3.7 15.8-8.6c3.2-4.4 7.8-10 1.2-23.6s-17.5-21.7-26.1-17.6c-8.5 4.1-10.1 18.5-3.5 32.1z"/><path class="st1" d="M237.5 70.7c-.8 4.4-3.5 7.7-5.9 7.2-2.4-.4-3.7-4.4-2.9-8.8s3.5-7.7 5.9-7.2c2.4.4 3.7 4.3 2.9 8.8zM199.9 70.3s1.2 3.1 1.8 7.2c.4 2.5-.9 6.7.6 6.3l6.2-2.6-8.6-10.9z"/><path class="st14" d="M209.1 74.4c.8.7 1 1.7.5 2.2s-1.5.3-2.2-.5c-.8-.7-1-1.7-.5-2.2.4-.4 1.4-.2 2.2.5z"/><path class="st12" d="M212.8 67.9c.6-.1-2.1-.6-6.9 1.4-1.4.6-2.6 1.2-3.1 2-.4.6.9 1.3 2.3.4 1.6-1.2 4.5-3.1 7.7-3.8z"/><path class="st14" d="M210.2 71.9L206 74l.9 1.6 3.6-3.2z"/><path class="st12" d="M236.5 54.8c-1 5.8-5.3 9.9-11.1 11.1-7.8 1.6-23.8 1-27.4-5.5-1.5-2.8.9-10.2 3-12.5 3.3-3.7 7.3-5.3 7.3-5.3h14.3l11 7.7 2.9 4.5z"/><path d="M208.2 86.5l1.8 2.4c1.4-.3 3.5-2.1 2.9-4.9-.2-1.1-3.5 1.6-4.7 2.5z" fill="#f7f7f7"/><path class="st4" d="M235.6 67.5c.1-.1.2-.2.2-.3 0-1.2-.3-2-1-2.4-.9-.6-1.9-.1-2-.1-.2.1-.3.3-.2.4.1.2.3.3.4.2 0 0 .8-.3 1.3 0 .4.3.6.9.7 1.8 0 .2.2.3.3.3.2.2.3.1.3.1zM234.7 72.5c.1-.1.2-.2.2-.3 0-.2-.1-.3-.3-.4-.7 0-1.2-.2-1.4-.6-.4-.6 0-1.6.2-2 .1-.2 0-.4-.1-.5-.2-.1-.4 0-.5.1 0 .1-.8 1.6-.2 2.6.3.6 1 .9 1.9.9.1.2.2.2.2.2z"/><path d="M225.2 59.4c-11.9.5-20.3-5.4-22.2-7.5-.4-.4-.6-.7-.4-1 .1-.3.4-.4.6-.3.2.1.3.2.3.4.7 1.1 13.1 11 30.1 6 .3-.1.5.1.6.3.1.3-.1.5-.3.6-3.1.9-6 1.4-8.7 1.5z"/><path d="M195.1 155.4c-2.2 1.2-3.9 3.2-4.8 5.5-1.5 3.6-3 8.2-.3 7.3 9.2-3.2 7.7-14.3 7.4-14.1-.8.4-1.5.9-2.3 1.3z" fill="#b7652e"/><g><path class="st9" d="M263 144.6c1.5 16.7-.2 24.1 1.3 31.9.5 2.8 3.2 11.9 5.9 17.9 3.8 8.6-37.1 11-37.1 11l-.9-18.8-11.8-22.2-.5-1.6-1.7-5.7c-2-6.4-2.1-13.3-.4-19.8 1.9-7.4 5.6-18.9 8.2-22.5 8.5-11.5 13.5-15.9 18.6-15.6 2.6.1 15.1 9 18.4 45.4z"/></g><g><path class="st18" d="M255 124.7c-.2 0-.3-.1-.3-.3-1.4-7.5-5.2-9.6-8.3-10-3.9-.5-7.7 1.6-8.4 3.3-.1.2-.3.2-.4.2-.2-.1-.2-.3-.2-.4 1-2.1 5.2-4.2 9.1-3.6 2.6.3 7.3 2.2 8.8 10.5 0 .1-.1.3-.3.3z"/></g><g><path class="st1" d="M199 160l.8 5.6-5.9 2.5s-15.9-9.4-15.9-10.9v-.3-.2c0-.2.1-.3.1-.5v-.1c.1-.5.4-1 .6-1.5l.3-.6c.2-.4.4-.7.4-.7 6.6-10.1 13.5 3.1 13.5 3.1l6.1 3.6z"/></g><g><path class="st9" d="M249.6 156.4v.2c-.4 10.5-1.8 21.5-4.9 28.9-1.1 2.5-2.3 4.7-3.8 6.3-1.1 1.2-2.5.2-3.7.7-1.6.7-3.4 2.3-5.7 1.7-.5-.1-.8.2-1.4 0-1.2-.3-2.5-.8-3.8-1.4-8-3.6-17.3-9.3-24.5-15.3-2.8-2.4-5.7-4.5-8-6.1-.2-.1-.4-.3-.6-.4-2.5-1.7-4.2-2.8-4.2-2.8s3.9-2.5 6-6c3.1-5.3 2.4-8.1 2.4-8.1l4.1 1.9.6.3 23.8 10.8s-2.1-37.1 4.1-44.7c3.2-3.8 12.3-5.4 16.6 3.5 1.3 2.6 2.4 9.3 2.8 17.5.3 3.9.3 8.4.2 13z"/></g><g><path class="st18" d="M227.7 168.1h-.1l-7.4-3.4c-.2-.1-.2-.3-.2-.4.1-.2.3-.2.4-.2l7 3.3 5.2-31c0-.2.2-.3.4-.3s.3.2.3.4l-5.3 31.4c0 .1-.1.2-.3.2.1 0 .1 0 0 0z"/></g><g><path class="st18" d="M233.2 194.9c-1 0-2.1-.1-3.2-.4-.2 0-.3-.2-.2-.4 0-.2.2-.3.4-.2 3.8.9 7.2.2 10.2-2.2 14.4-11.4 14.5-56.8 14.5-57.2 0-.2.1-.3.3-.3.2 0 .3.1.3.3 0 1.9-.1 46.2-14.7 57.7-2.4 1.8-4.9 2.7-7.6 2.7z"/></g><g><path class="st18" d="M230.7 150.1c-.2 0-.3-.1-.3-.3.1-3.4-1.6-7.2-1.6-7.3-.1-.2 0-.4.2-.4.2-.1.4 0 .4.2.1.2 1.7 4 1.7 7.5-.1.2-.2.3-.4.3z"/></g><g><path class="st18" d="M233.1 171.8c-.1 0-.1 0-.2-.1-3.8-2.9-8-4.8-8-4.9-.2-.1-.2-.3-.2-.4.1-.2.3-.2.4-.2 0 0 4.3 2 8.2 4.9.1.1.2.3.1.4-.1.2-.2.3-.3.3z"/></g><g><path class="st1" d="M173.3 148.9s-.8 1.2-.7 1.9c.2.7.7 1.8 1.7 2.2 1.4.5 5.7 1.1 5.7 1.1l4-4.4-8.8 1.1-1.9-1.9z"/></g><g><path class="st1" d="M187.1 147c-.5-.2-1.2-.1-1.6.3-.7.6-1.9 2.2-1.7 2.4.2.3 1.3-.1 1.7 0l-.5 2.1 4.6 1.5-.8-4.2c-.1-.9-.8-1.7-1.7-2.1z"/></g><g><path class="st4" d="M182 155.7c-.1.1-.2.2-.3.2h-.1s-1.8-.8-2.9-1.3l.3-.6c1.1.5 2.8 1.3 2.8 1.3.2 0 .2.2.2.4z"/></g><g><path class="st4" d="M180.1 157.8c-.1.1-.2.2-.3.2 0 0-.1 0-.2-.1-.1 0-.8-.5-1.7-1v-.2c0-.2.1-.3.1-.5.7.5 1.5.9 1.9 1.2.2 0 .3.2.2.4z"/></g><g><path class="st4" d="M185.7 148.3v.9s0 .5-.1.4c-.1 0-.9-.1-.9-.1l1-1.2z"/></g><g><path d="M177 138.1l-3.6 3.3c-.2.2-.5.2-.7 0-.2-.2-.2-.5 0-.7l3.6-3.3c.2-.2.5-.2.7 0 .3.2.2.5 0 .7z"/></g><g><path class="st4" d="M189.5 145.8l.9.9 1.3-.5z"/></g><g><path class="st1" d="M192.2 145.8s-3.3 1-3.4 1.5c0 .4.8 1.5 2.3 1.6.7.1 2.6.1 2.6.1l-1.5-3.2z"/></g></g><g><path class="st8" d="M167.2 136c-.1 0-.2 0-.3-.1l-7-4.5c-.3-.2-.4-.6-.2-.9.2-.3.6-.4.9-.2l7 4.5c.3.2.4.6.2.9-.2.2-.4.3-.6.3zM170.9 132.9c-.3 0-.5-.2-.6-.5l-2.3-7.5c-.1-.3.1-.7.4-.8.3-.1.7.1.8.4l2.3 7.5c.1.3-.1.7-.4.8-.1.1-.1.1-.2.1zM177 131.6c-.4 0-.7-.3-.6-.7l.4-7.8c0-.4.3-.6.7-.6s.6.3.6.7l-.4 7.8c-.1.3-.3.6-.7.6zM157.8 141.2c-.4 0-.6-.3-.6-.6 0-.4.3-.6.6-.6l8.2-.1c.4 0 .6.3.6.6 0 .4-.3.6-.6.6l-8.2.1z"/></g><g><path d="M202.1 156.2c-.8 3.9-2.9 10.9-8.3 15.2-.2-.1-.4-.3-.6-.4 5.4-4.2 7.5-11.3 8.3-15.1l.6.3z" fill="#b56835"/></g><g><path d="M141 389.6c0 2.1-10.9 3.9-24.3 3.9s-24.3-1.8-24.3-3.9 11.2-2.5 24.7-2.5c13.3 0 23.9.4 23.9 2.5z" fill="#422d51"/><path class="st21" d="M161.7 289.2v.6c-.2 4.7-2.5 36.7-20.9 63.9-19.9 29.5-9.4 40.6-9.4 40.6h-11.6s5.1-86.4 41.4-104.8c.2-.1.3-.2.5-.3z"/><path class="st22" d="M161.7 289.2v.6c-1.9 3.2-14.1 23.5-25 49.3-12.2 28.9-9.9 51.9-9.9 52.1s-.1.3-.3.3c-.1 0-.3-.1-.3-.3 0-.2-2.4-23.4 9.9-52.4 11-25.9 23.2-46.3 25.1-49.4.2 0 .3-.1.5-.2z"/><path d="M124 362.2l6 13s-2 7.9-1.3 11.5c.7 3.7 1 4.6 1 4.6h-3.4l-2.7-27.2.4-1.9z"/><path class="st21" d="M119.4 394.3h-10s-5.5-27.5-28.7-48.8c-.3-.3-.4-.7-.3-1 0-.2.1-.4.3-.5.3-.3.7-.5 1.1-.4 5.4 1 16.8 4.9 28.8 19.9 16.8 20.8 8.8 30.8 8.8 30.8z"/><path class="st21" d="M130 395.7h-9.7s-1.6-4.6-9.7-32.3c-7.5-25.7 9.1-66.3 11.4-71.9l.3-.6c.1 0 .2-.1.3-.1 3.9-1.2 10.8 19.6 5.1 36.7-11 33.5 2.3 68.2 2.3 68.2z"/><path class="st22" d="M123.1 393.3c.1.2 0 .3-.2.4h-.1c-.1 0-.2-.1-.3-.2-4.7-12.4-9.9-39.8-4.7-64.7 4.4-21.5 4.4-34.3 4.3-37.2l.3-.6c.1 0 .2-.1.3-.1v.1c0 .1.8 13.4-4.3 38-5.1 24.7 0 52 4.7 64.3zM115.1 392.4c0 .2-.1.3-.3.3-.2 0-.3-.1-.3-.3-2.6-29.9-32.8-47.2-34.1-47.9 0-.2.1-.4.3-.5 1 .5 31.7 18 34.4 48.4z"/><path class="st23" d="M141 389.6l-.8 7.7-.1.7-.6 6.2-.1.7-3.4 34.4H95.7l-2.4-34.4v-.7l-.4-6.4v-.7l-.5-7.4s7 1.6 24.7 1.6c18.6-.1 23.9-1.7 23.9-1.7z"/><g><path class="st24" d="M140.2 397.3l-.1.7c-7.7 1.2-15.2 1.6-22.1 1.6-10.2 0-19.1-.9-25.2-1.8v-.7c10.3 1.4 28.3 3 47.4.2z"/></g><g><path class="st24" d="M139.6 404.1l-.1.7c-7.8 1.2-15.4 1.6-22.3 1.6-9.5 0-17.8-.8-23.8-1.6v-.7c10.4 1.4 27.7 2.8 46.2 0z"/></g></g><g class="st7"><path class="st8" d="M177.2 269.9c-1.7 0-3-1.4-3-3 0-1.7 1.4-3 3-3 1.7 0 3 1.4 3 3s-1.3 3-3 3zm0-4.8c-1 0-1.8.8-1.8 1.8s.8 1.8 1.8 1.8 1.8-.8 1.8-1.8-.8-1.8-1.8-1.8z"/></g><g class="st7"><path class="st8" d="M135.9 79.2c-2.3 0-4.3-1.9-4.3-4.3 0-2.3 1.9-4.3 4.3-4.3 2.3 0 4.3 1.9 4.3 4.3-.1 2.4-2 4.3-4.3 4.3zm0-7.2c-1.6 0-3 1.3-3 3 0 1.6 1.3 3 3 3 1.6 0 3-1.3 3-3-.1-1.7-1.4-3-3-3z"/></g><g><path class="st0" d="M1007.3 437.9H717.1c.2.5.4.9.6 1.4h289.7c.4 0 .7-.3.7-.7 0-.4-.4-.7-.8-.7z"/><path class="st5" d="M958.4 432.8s-3.8 3-14.4 3.7c-12.5.9-14.4-1-14.4-1l-1.6-31c-2.4-47.2-8.2-94.3-17.4-140.7l-3.9-19.6 9.2 1 15.7-10.1c.5-.3.9-.8 1.2-1.4 1.1-2.9 4-9.5 4.5-6.4l8.8 59.7c4.3 29.1 7.3 58.3 8.9 87.6l3.4 58.2z"/><path class="st25" d="M857.6 436.7c-.3.7.1 1.4.8 1.5 1.2.3 3 .7 3.8.8 6.9.9 12.1.9 16.5.8 5.7-.1 14.7-2.3 14.7-2.3v1.9h9.1s.9-10.1-.5-13.3c-.7-1.7-5.1-6.1-5.1-6.1l-1.3 3.1-18.2-4.6s6.6 8.1-1.4 10.9c-.1.1-.3.1-.4.2-.4.2-.6.6-1 .8-.2.1-1.8.4-2.4.5-.2.1-.3.1-.5.1-.1 0-.2.1-.3.1-.2 0-.4.1-.5.1-.7.2-1.6.4-2.4.6h-.1c-.2 0-.3.1-.5.1-.1 0-.2 0-.3.1-6.4 1.2-8.9 2.6-9.6 3.7-.1.1-.1.2-.1.2s-.1.4-.3.8z"/><path class="st8" d="M942.6 142.5l-7.1 62.5-56.9 4h-.6l-.1-1.5-7-61.1-.9-28.3c-.3-3.6 2-6.9 5.5-7.8l28.1-7.7 17.8 2.1 11.5 2.6 9.7 35.2z"/><path transform="rotate(-2.204 897.57 158.81) scale(1.00004)" class="st26" d="M897.2 110.9h.6v95.8h-.6z"/><path transform="matrix(.9996 -.02766 .02766 .9996 -4.001 25.39)" class="st26" d="M915.3 107.9h.6v98.8h-.6z"/><path class="st23" d="M775.2 429.1s-29.9 1.8-29.9 8.8 32.8 3.4 32.8 3.4l-2.9-12.2z"/><path class="st27" d="M757.1 441.3c-.3 0-6.9-.4-8.7-3.1-.3-.4-.3-.8-.1-1.3.9-2.2 8-3.6 8.8-3.8.2 0 .3.1.4.2 0 .2-.1.3-.2.4-2.1.4-7.7 1.9-8.3 3.4-.1.2-.1.4.1.7 1.6 2.4 8.1 2.8 8.2 2.8.2 0 .3.2.3.3-.2.3-.3.4-.5.4zM762.8 441.3c-.2 0-.3-.1-.3-.3l-1.1-8.5c0-.2.1-.3.3-.3s.3.1.3.3l1.1 8.5c.1.1 0 .3-.3.3.1 0 .1 0 0 0zM768.3 440.8c-.2 0-.3-.1-.3-.3l-1.1-8.5c0-.2.1-.3.3-.3s.3.1.3.3l1.1 8.5c0 .1-.1.3-.3.3z"/><path transform="scale(.99999) rotate(-88.632 786.75 412.15)" class="st28" d="M775 383.2h23.5v57.9H775z"/><path class="st28" d="M794.9 405.9c.1.1 20.1-.4 20.8-.4 15.6-.2 28.8-1.3 34.5 5.5 6.3 7.5.9 18.8-4.7 21-5.7 2.2-67.5 9.4-67.5 9.4l-4.2-18 38.6-9.7-17.5-7.8z"/><path class="st28" d="M777.1 405.6c-.1.1-20.1-.6-20.8-.6-15.6-.4-28.8-1.5-34.5 5.2-6.4 7.4-1.1 18.8 4.5 21s67.4 10 67.4 10l4.4-18-38.5-10.1 17.5-7.5z"/><path class="st29" d="M796.6 429.6s-.1 0 0 0l-49.5-14c-.2 0-.3-.2-.2-.4 0-.2.2-.3.4-.2l49.4 14c.2 0 .3.2.2.4-.1.1-.2.2-.3.2z"/><path class="st29" d="M789 427.4c-.1 0-.3-.1-.3-.2 0-.2.1-.3.2-.4l40.8-11.3c.2 0 .3.1.4.2 0 .2-.1.3-.2.4L789 427.4c.1 0 0 0 0 0zM755.8 418c-.1 0-.1 0-.2-.1l-4.3-3.8c-.1-.1-.1-.3 0-.4s.3-.1.4 0l4.3 3.8c.1.1.1.3 0 .4 0 .1-.1.1-.2.1z"/><path class="st29" d="M822.6 418c-.1 0-.2 0-.2-.1-.1-.1-.1-.3 0-.4l4.3-3.8c.1-.1.3-.1.4 0 .1.1.1.3 0 .4l-4.3 3.8c-.1.1-.1.1-.2.1z"/><path class="st30" d="M813.3 405.3l-12.4.6-30.7-.3h-2.3s-2.5-2.8-7.3-4.9c-.7-.3-2.3-48.6 6-59.8.1-.2.3-.4.4-.5l.5-.5.2-.2c.3-.3.5-.5.8-.6.1-.1.1-.1.2-.1.3-.2.6-.3.9-.5l.1-.1.1-.1c12.6-6.3 26.5-2.4 26.5-2.4.9.5 2.8 1 5 1.9.4.2.8.4 1.2.5.5.2 1.1.5 1.6.8l.6.3c.9.5 1.7 1.1 2.5 1.7v.1c.9.7 1.7 1.5 2.4 2.5 4 5.5 3.7 61.6 3.7 61.6z"/><path class="st5" d="M875.9 240.4l-1.3 189.9 28.2 2.5 6-187.6-27.1-13.8z"/><path class="st5" d="M938.7 250.4c-.3 2.2-15.9 4.7-32.7 4-16.8-.6-30.9-2-30.1-14.1 1.5-24.6 0-31.6 9.6-28.7 10.7 3.2 50.3-3.7 50.3-3.7s3.4 38.4 2.9 42.5z"/><path class="st6" d="M908.2 223.8c-1.2 0-2.3-1-2.3-2.2l-.7-13.8h.6l.7 13.8c0 .9.8 1.7 1.8 1.6l2.8-.1v.6l-2.9.1c.1 0 .1 0 0 0z"/><path class="st6" d="M911.3 229.8c-.2 0-.3-.1-.3-.3l-.6-17.8c0-.2.1-.3.3-.3s.3.1.3.3l.6 17.8c0 .1-.1.3-.3.3z"/><path class="st1" d="M894.5 82c1.6 8.3-.3 16.1-3.6 21.9-1.9 3.4.8 7.6 4.7 7l24.2-3.6s-13-15-8.1-31.4l-18 2.7c.1 0 .3 1 .8 3.4z"/><path class="st31" d="M893.7 84.3s11.1 6.2 15 3.3l2.1-1.9c.2 2.5-4.1 6.7-7.3 6.6-3.4-.2-8.3-3.8-9.8-8z"/><path class="st32" d="M897.4 86.3C886 84.7 882 70.9 880.9 59.1c-.3-3.1-.4-6.1-.4-8.7v-.3c.2-12 7.5-17.9 18.6-18.1 15.3-.2 22 6.7 21.8 18.8-.1 12.2 5.3 39.4-23.5 35.5z"/><path class="st1" d="M919.5 65.2c-.1 12.6-7.3 25.2-16.3 25.1-9.1-.1-19-14.6-18.9-27.2s6.4-28.5 15.5-28.4c9.1 0 19.9 17.9 19.7 30.5z"/><path class="st9" d="M923.5 105.2l-4.9 7.5-14-2.9-12.8 4.2-7.3-6.2 1.5-1.2.5-.4.9-.7.9-.7 3.8-3.1s17 3.6 22.7-2l5.6 3.6.9.7.5.4 1.7.8z"/><path class="st31" d="M903.6 78c-.1 0-.1-.1-.2-.1-.1-.1-.1-.3.1-.4l2.1-1.2c.6-.3 1.3-.7 1.5-.9-3.1-1.8-4.5-5-3.8-8.6 0-.2.2-.3.3-.2.2 0 .3.2.2.3-.7 3.4.6 6.4 3.5 8 .3.1.3.3.3.4 0 .4-.6.7-1.8 1.4-.6.3-1.4.7-2 1.2 0 .1-.1.1-.2.1z"/><path class="st26" d="M906.9 123.9c0 1.6-.6 3-1.3 3s-1.3-1.3-1.3-3c0-1.6.6-3 1.3-3 .7 0 1.3 1.4 1.3 3zM907.6 140.5c0 1.6-.6 3-1.3 3s-1.3-1.3-1.3-3c0-1.6.6-3 1.3-3s1.3 1.4 1.3 3z"/><path class="st33" d="M908.2 157.1c0 1.6-.6 3-1.3 3s-1.3-1.3-1.3-3c0-1.6.6-3 1.3-3 .7 0 1.3 1.3 1.3 3zM908.9 173.7c0 1.6-.6 3-1.3 3s-1.3-1.3-1.3-3c0-1.6.6-3 1.3-3 .7 0 1.3 1.3 1.3 3z"/><path class="st26" d="M909.5 190.4c0 1.6-.6 3-1.3 3s-1.3-1.3-1.3-3c0-1.6.6-3 1.3-3 .8 0 1.3 1.3 1.3 3z"/><path class="st1" d="M889.6 68.2c3.3 3.7 4.8 7.7 3.3 9.1-1.5 1.3-5.4-.6-8.7-4.2-3.3-3.7-4.8-7.7-3.3-9.1 1.5-1.4 5.4.5 8.7 4.2z"/><path class="st31" d="M881.5 66.8c-.1 0-.2-.1-.2-.2-.2-.7-.2-1.2.1-1.6.5-.6 1.5-.6 1.6-.6s.3.1.3.3c0 .2-.1.3-.3.3s-.8 0-1.1.4c-.2.2-.2.6 0 1.1 0 .2 0 .3-.2.4-.1-.1-.1-.1-.2-.1zM886 72.6c-1.9-1-3.9-4.1-4-4.3-.1-.1 0-.3.1-.4s.3 0 .4.1c0 0 2 3.2 3.7 4 .1.1.2.2.1.4 0 .2-.2.3-.3.2z"/><path class="st32" d="M917.7 59.6c-.2-.8-6.6-2.4-9.5-1.1-3 1.4-2.7 3.7-2.1 3.2.6-.4 3.7-1.6 5.5-1.6 1.7 0 6.2 0 6.1-.5zM886.2 64c0-.8 5.6-4.2 8.8-3.7s3.6 2.8 2.9 2.5c-.7-.2-4-.5-5.7 0-1.6.5-6 1.7-6 1.2zM914.4 64.4l-5.3.6.2 1.3 5.7-1.1z"/><path class="st32" d="M910.7 67.2c.2 1.2.9 2.1 1.7 2 .7-.1 1.1-1.2 1-2.4-.2-1.2-.9-2.1-1.7-2-.7.1-1.2 1.1-1 2.4zM891.1 67.1l5.1-1.1.3 1.2-5.7.9z"/><path class="st32" d="M895.4 68.7c.1 1.2-.4 2.3-1.1 2.3-.7.1-1.4-.9-1.5-2.1s.4-2.3 1.1-2.3c.7-.1 1.4.9 1.5 2.1z"/><path class="st31" d="M901.6 81.6c-1.3-.3-2.2-.6-2.3-.7s-.2-.2-.2-.4c.1-.1.2-.2.4-.2 0 0 2.5 1 4.8.8 2.9-.3 4.7-1.8 4.7-1.8.1-.1.3-.1.4 0 .1.1.1.3 0 .4s-1.9 1.7-5.1 2c-.9.2-1.8.1-2.7-.1z"/><path d="M886.1 50.4l-1.3 6.6c-1.9 1-4.2-.3-4.3-2.4-.1-1.5-.1-2.9-.1-4.2.1 0 .1 0 .2-.1.9.6 2.2-1 5.5.1z" fill="#191919"/><path class="st32" d="M919 62.9l-3.5-10.2v-.2s-.2.1-.6.2c-.5.2-1.4.4-2.6.8-7.2 2.1-24.7 6.5-29.6 2.3-3.9-3.4-7.9-11.7.4-18.1 14.3-11.2 27.9-2.2 33.4 5.8s4 8.6 4.4 11.8c.5 3.1-1.9 7.6-1.9 7.6z"/><path class="st29" d="M915.5 52.4s-.2.1-.6.2c-.5.2-1.4.4-2.6.8.9-1.1 3.9-6.4 3.7-8.5v-.2c0-.2.1-.3.3-.3.1 0 .3.1.3.3v.1c.3 4.7-.4 6.6-1.1 7.6z"/><path class="st31" d="M903.7 84.7c-.8-.2-1.3-.5-1.3-.5-.1-.1-.2-.3-.1-.4.1-.1.3-.2.4-.1.1.1 1.9 1.3 3.8-.3.1-.1.3-.1.4 0 .1.1.1.3 0 .4-1.2 1-2.3 1-3.2.9z"/><path class="st35" d="M798.9 274.3c3.2 1.4 5.9 10.7 5.6 14.4-.5 7.6-2.7 9.4-2.7 9.4l-5.5-14.7c.1.1.5-10.1 2.6-9.1z"/><path class="st1" d="M798.6 336.9s-2.1 4.7-13.1 5.1c-7.5.3-14.8-2.8-12.2-5.1 2.4-2.1 4-8.9 3.5-16.5 0-.7-.1-1.3-.2-2-.1-1-.3-1.9-.4-2.9-.4-2.2-.6-3.2-.6-3.2l16.9-2.1c-1 3.5-1.5 6.7-1.5 9.4v1c.5 11.3 7.6 16.3 7.6 16.3z"/><path class="st31" d="M791.4 319.4c0 .4-.1.8-.3 1.3-.9 2.3-4.2 4.9-6.7 4.7-2.4-.2-5.6-2.2-7.6-5 0-.7-.1-1.3-.2-2 2.8 1.5 9.8 4.8 12.7 2.8l1.7-1.5.4-.3z"/><path class="st35" d="M778.6 317.8c-12-1.6-13.8-12.9-14.6-23.9-.2-2.9-.2-5.8-.1-8.1v-.3c.5-11.2 8-14.1 18.4-14 14.3.1 19.7 4.3 19.3 15.6-.4 11.3 5.6 34.6-23 30.7z"/><path class="st1" d="M800 300.5c-.4 11.8-7.3 23.4-15.8 23.1s-17.4-14-17-25.8 6.7-26.5 15.1-26.2c8.4.2 18.1 17.1 17.7 28.9z"/><path class="st31" d="M785.7 312.6c.1 0 .1-.1.1-.2s0-.3-.2-.3c-.7-.2-1.5-.4-2.2-.5-.6-.1-1.3-.3-1.6-.4 2.3-2.4 2.7-5.6 1.1-8.7-.1-.1-.2-.2-.4-.1-.1.1-.2.2-.1.4 1.5 2.9 1.2 5.9-1 8.1-.2.2-.2.4-.1.5.1.4.7.5 2 .8.7.1 1.4.3 2.1.5.2-.1.2-.1.3-.1z"/><path class="st36" d="M798.6 298.1c-.1-.7-6.1-2.4-8.9-1.2s-2.6 3.4-2 3 3.5-1.5 5.1-1.4c1.7 0 5.9.1 5.8-.4zM768.6 300.7c0-.7 5.3-3.8 8.3-3.3s3.3 2.7 2.7 2.4c-.7-.2-3.8-.6-5.3-.2-1.6.5-5.7 1.6-5.7 1.1z"/><path class="st32" d="M773.3 302.9l4.9-.9.2 1.2-5.4.6z"/><path class="st32" d="M777.2 304.4c.1 1-.4 1.9-1 2-.6 0-1.2-.8-1.2-1.8-.1-1 .4-1.9 1-2s1.2.7 1.2 1.8zM794.9 302.4l-4.9-.9-.2 1.2 5.4.6z"/><path class="st32" d="M791 303.9c-.1 1 .4 1.9 1 2 .6 0 1.2-.8 1.2-1.8.1-1-.4-1.9-1-2-.6-.1-1.2.7-1.2 1.8z"/><path class="st31" d="M782.9 315.4c-1.2-.3-2.1-.7-2.1-.7-.1-.1-.2-.2-.1-.4.1-.1.2-.2.4-.1 0 0 2.3 1 4.4.9 2.8-.2 4.5-1.6 4.5-1.6.1-.1.3-.1.4 0 .1.1.1.3 0 .4s-1.8 1.5-4.8 1.7c-1 .1-1.9-.1-2.7-.2z"/><path class="st35" d="M766.5 301.5l1.1-10v-.2h.6c.5 0 1.4.1 2.5.2 7 .4 23.8.9 27.4-4 2.9-3.9 4.6-15.3-5.6-19-25-9-25.7 4.6-29.1 13-3.3 8.4-2.8 11.1-1.7 13.8 1.1 2.8 4.8 6.2 4.8 6.2z"/><path class="st36" d="M767.9 291.3h.2c.5 0 1.4.1 2.5.2-1-.8-4.8-5.1-5.1-6.9v-.2c0-.2-.2-.2-.3-.2s-.2.2-.2.3v.1c.7 4.2 2.9 6.7 2.9 6.7z"/><path class="st31" d="M784.5 317.9c-.8-.2-1.3-.6-1.3-.6-.1-.1-.2-.3-.1-.4.1-.1.3-.2.4-.1.1.1 1.9 1.3 3.9-.2.1-.1.3-.1.4.1.1.1.1.3-.1.4-1.2 1-2.4 1-3.2.8z"/><path class="st1" d="M772 302.6c3 3.5 4.3 7.3 2.9 8.6-1.4 1.2-5-.6-8-4.1s-4.3-7.3-2.9-8.6c1.4-1.3 5 .6 8 4.1z"/><path class="st31" d="M764.5 301.1c-.1 0-.2-.1-.2-.2-.2-.6-.1-1.1.1-1.5.5-.6 1.4-.5 1.5-.5s.3.1.2.3c0 .1-.1.3-.3.2-.2 0-.8 0-1 .3-.2.2-.2.5-.1 1 0 .1 0 .3-.2.3.1.1 0 .1 0 .1zM768.5 306.7s0-.1 0 0c-1.8-1-3.5-4-3.6-4.1s0-.3.1-.4.3 0 .4.1c0 0 1.8 3 3.3 3.9.1.1.2.2.1.4 0 0-.2.1-.3.1z"/><path class="st1" d="M801.3 305c-1.8 4.2-4.7 7.1-6.4 6.4s-1.7-4.8.1-9 4.7-7.1 6.4-6.4c1.8.7 1.7 4.7-.1 9z"/><path class="st31" d="M801.5 299.5c-.1 0-.2-.2-.2-.3 0-.2.1-.7-.2-1-.2-.2-.5-.3-1-.2-.1 0-.3-.1-.3-.2s.1-.3.2-.3c.6-.1 1.1.1 1.4.4.5.6.3 1.5.3 1.5.1 0 0 .1-.2.1zM799.1 306.4s-.1 0-.1-.1c-.1-.1-.1-.3 0-.4 1.3-1.2 2.2-4.5 2.2-4.6s.2-.2.3-.2.2.2.2.3c0 .1-1 3.5-2.4 4.8 0 .2-.1.2-.2.2z"/><g class="st7"><path transform="rotate(-44.349 977.45 229.975)" class="st8" d="M976.8 225.3h1.3v9.4h-1.3z"/><path transform="rotate(-43.578 977.398 229.99)" class="st8" d="M972.6 229.3h9.4v1.3h-9.4z"/></g><g class="st7"><path transform="rotate(-44.349 839.826 97.629)" class="st8" d="M839.2 92.9h1.3v9.4h-1.3z"/><path transform="rotate(-43.578 839.84 97.71)" class="st8" d="M835.1 97.1h9.4v1.3h-9.4z"/></g><g class="st7"><path transform="rotate(-44.349 408.322 230.36)" class="st8" d="M407.7 225.7h1.3v9.4h-1.3z"/><path transform="rotate(-43.578 408.327 230.441)" class="st8" d="M403.6 229.8h9.4v1.3h-9.4z"/></g><g class="st7"><path transform="rotate(-35.751 844.033 304.819)" class="st8" d="M839.4 304.2h9.4v1.3h-9.4z"/><path transform="rotate(-34.982 844.043 304.8)" class="st8" d="M843.4 300.1h1.3v9.4h-1.3z"/></g><path class="st8" d="M443.9 144c-.1 0-.2 0-.3-.1l-6.8-4.4c-.3-.2-.4-.6-.2-.9.2-.3.6-.4.9-.2l6.8 4.4c.3.2.4.6.2.9-.2.2-.4.3-.6.3zM447.5 140.9c-.3 0-.5-.2-.6-.4l-2.2-7.3c-.1-.3.1-.7.4-.8s.7.1.8.4l2.2 7.3c.1.3-.1.7-.4.8h-.2zM453.5 139.7c-.4 0-.6-.3-.6-.7l.3-7.6c0-.3.3-.6.7-.6.3 0 .6.3.6.7l-.3 7.6c-.1.3-.4.6-.7.6zM434.8 149c-.3 0-.6-.3-.6-.6s.3-.6.6-.6l8-.1c.3 0 .6.3.6.6s-.3.6-.6.6l-8 .1zM783.2 374.6c-.3 0-.5-.2-.6-.5l-2.1-7.5c-.1-.3.1-.7.4-.8.3-.1.7.1.8.4l2.1 7.5c.1.3-.1.7-.4.8-.1.1-.2.1-.2.1zM787.9 374.7c-.1 0-.2 0-.3-.1-.3-.1-.5-.5-.3-.8l3.2-6.9c.1-.3.5-.4.8-.3s.5.5.3.8l-3.2 6.9c0 .3-.3.4-.5.4zM793.2 377.7c-.2 0-.3-.1-.4-.2-.2-.2-.3-.6 0-.9l5.3-5.5c.2-.2.6-.3.9 0 .2.2.3.6 0 .9l-5.3 5.5c-.2.2-.3.2-.5.2zM779 377.5c-.1 0-.3-.1-.4-.2l-6-5.3c-.3-.2-.3-.6-.1-.9s.6-.3.9-.1l6 5.3c.3.2.3.6.1.9-.2.2-.3.3-.5.3z"/><path class="st23" d="M796.6 429s29.9 1.8 29.9 8.8-32.8 3.4-32.8 3.4l2.9-12.2z"/><path class="st27" d="M814.8 441.2c-.2 0-.3-.1-.3-.3 0-.2.1-.3.3-.3.1 0 6.6-.4 8.2-2.8.2-.2.2-.4.1-.7-.7-1.6-6.2-3-8.3-3.4-.2 0-.3-.2-.2-.4 0-.2.2-.3.4-.2.8.2 7.9 1.6 8.8 3.8.2.4.1.9-.1 1.3-2 2.6-8.6 3-8.9 3zM809 441.2c-.2 0-.3-.2-.3-.4l1.1-8.5c0-.2.2-.3.3-.3.2 0 .3.2.3.3l-1.1 8.5c0 .3-.1.4-.3.4zM803.6 440.7s-.1 0 0 0c-.2 0-.3-.2-.3-.4l1.1-8.5c0-.2.2-.3.3-.3.2 0 .3.2.3.3l-1.1 8.5c0 .2-.2.4-.3.4z"/><path class="st8" d="M922 104.2l-4.7 5.8c-.1.1-.2.1-.3.1l-12.3-3.3-11.8 4.5h-.1c-.1 0-.1 0-.2-.1-1.6-1.1-4.6-3.3-6.5-4.7l.5-.4c1.7 1.2 4.3 3.1 6.2 4.5l11.7-4.4h.2l12.2 3.2 4.6-5.6.5.4z"/><path class="st6" d="M953.1 435.4c0-.3-.8-29.1-2.9-58.3-3.1-43.2-12.8-119.1-20.1-164.7l.6-.1c7.3 45.6 17.1 121.6 20.1 164.8 2.1 29.2 2.9 58 2.9 58.3h-.6zM880.5 430.8h-.7l3-217.5h.6z"/><path class="st25" d="M957.8 439.1l-26.3.6v-.2c-.1-4.1 1.2-5.2 4.1-7.2 2.1-1.4 4.1-1.9 7.8-2.3 3.8-.4 5.3 0 8.4 1.2 3.3 1.3 5.9 3.8 6 7.9z"/><path d="M877.4 216.7c.8-.2 58.7-4.4 58.7-4.4l-.5-8.7-57.8 4.7-.4 8.4z" fill="#111"/><path transform="rotate(-3.624 893.102 211.588)" class="st5" d="M891.6 207.1h3v9h-3z"/><path class="st5" d="M930.7 212.7l-3 .2-.5-8.6 3-.2zM921.8 213.8l-3 .2-.5-9 3-.2zM886.4 216l-3 .9-.5-8.9 3-.3z"/><path class="st9" d="M913.5 214l-10.3.7-.6-8.4 10.4-.8z"/><g><path class="st1" d="M880.2 227.6c-1.1 0-.4-8-2-4.6-.5 1.1.2 6.1-.3 10.6-.1 1.3 0 4.5-.7 5.2-.3.3-.6-.1-.8-.2-.1 0-.1 0-.2.1-.2.3-.3.8-.4 1.3-.1.4-.3.8-.5.9-.2.2-.6-.1-.9-.2-.1-.1-.3-.1-.4 0-.1 0-.2.2-.3.3-.2.3-.4.7-.7.7-.2 0-.4-.4-.6-.7l-.3-.3h-.3c-.4.1-.9.7-1.1-.2-.9-4.3 0-17.5-3-24.5-1.2-2.9 10.7-8.9 10.7-8.9s1.3 3.4 2.5 10.4c.3 1.7 2.2 10.1-.7 10.1z"/><path class="st31" d="M874.4 240.8c-.1-.1-.3-.1-.4 0-.1 0-.2.2-.3.3-.1-2.2-.2-7.5-.1-9 0-.2.1-.3.3-.3s.3.2.3.3c0 1.3.1 6.3.2 8.7zM876.4 238.6c-.1 0-.1 0-.2.1-.2.3-.3.8-.4 1.3 0-2.2-.1-8.8 0-10.3 0-.2.2-.3.3-.3.2 0 .3.2.3.3-.1 1.3-.1 6.1 0 8.9zM872.4 241.1l-.3-.3h-.3c-.1-4.5-.2-10.4-.2-10.7 0-.2.1-.3.3-.4.2 0 .3.1.3.3.1.4.2 8.1.2 11.1z"/><path class="st1" d="M875.4 204.8l3.4 5.5-11.1 5.9-.7-.9c.1 0 2.8-6.4 8.4-10.5z"/></g><g><path class="st8" d="M864.7 173.6l16.2 34.5s-3.7 6-5.3 7.5c-4.7 4.4-7.8 3.3-7.8 3.3l-21.2-30.4c-3.7-5.4-2.6-8.5-1.7-15 2.7-20.5 10.7-59.3 31-63.4 2.8-.6 5.9 18.1 5.9 18.1l-16.7 44-.3.8-.1.4v.2z"/></g><g><path class="st26" d="M864.7 173.6l-5.6 1.3h-.1c-.1 0-.3-.1-.3-.2 0-.2.1-.3.2-.4l5.8-1.3v.6z"/></g><g><path class="st26" d="M880.9 208.4c-.1 0-.2-.1-.3-.2l-4.1-8.9c-.1-.2 0-.3.2-.4.2-.1.3 0 .4.2l4.1 8.9c.1.2 0 .3-.2.4h-.1z"/></g><g><path class="st26" d="M871.7 154.7c-.2 0-.3-.2-.3-.4 3.8-20.9 3.3-29.7 3.3-29.8 0-.2.1-.3.3-.3s.3.1.3.3c0 .1.5 8.9-3.3 29.9 0 .2-.1.3-.3.3z"/></g><g><path class="st26" d="M874.7 134.4c-.2 0-.3-.1-.3-.3 0-1.8-1.9-7-1.9-7.1-.1-.2 0-.3.2-.4s.3 0 .4.2c.1.2 2 5.4 2 7.3-.1.1-.3.3-.4.3z"/></g><g><path d="M936.6 409.8c-.3-.1-.3-.3-.2-.4 4.5-9.5 3.2-45.4 3.1-45.8 0-.2.1-.3.3-.3s.3.1.3.3c.1 1.5 1.4 36.4-3.2 46.1-.1 0-.2.1-.3.1z" fill="#432254"/></g><g><path class="st26" d="M924.8 169.9c0 3.7-1.5 6.8-3.4 6.8s-3.4-3-3.4-6.8c0-3.7 1.5-6.8 3.4-6.8s3.4 3 3.4 6.8z"/></g><g><path class="st31" d="M912.3 155.5l6.4 5.1 4.6.7-3.9 5.8-6-.9z"/><path d="M915.6 178.9h-11.3c-1 0-1.9-.9-1.9-1.9v-24.7c0-1 .9-1.9 1.9-1.9h11.3c1 0 1.9.9 1.9 1.9V177c0 1.1-.8 1.9-1.9 1.9z" fill="#1c1c1c"/><path class="st1" d="M923.6 161.2s-5.5.8-8.5 2.9c-2.6 1.9-2.8 7.8-.2 9.2.6.3 1.2.5 1.9.7 2.8.7 5.8.2 8.5-1l4.6-2.2-6.3-9.6z"/><path class="st1" d="M916.8 163.2s-14.5.9-15 2c-.4.9 6.1 1.6 9.1 1.4 2.9-.2 5.5-.2 5.5-.2l.4-3.2zM915.5 166.8l-6.7.4s-4.8-.1-6.5.1c-1.2.1-1.2 1-1.1 1.3.3 1.3 6.7.9 9.7.7 2.9-.2 5.5-.2 5.5-.2l-.9-2.3zM916.2 169.6l-7.6.5h-6.5c-1.1.2-.9 1.6-.1 1.8 1.6.6 7 .4 9.5.2 2.9-.2 5.6-.1 5.6-.1l-.9-2.4zM918.7 172.1s-8.4.4-12.1.9c-1.1.1-1.2.5-1.2.9 0 .5 1.8.7 2.2.8 2.7.1 4 .1 6.6-.1 2.9-.2 5.7-.2 5.7-.2l-1.2-2.3z"/></g><g><path class="st8" d="M932.7 107.3c20.8 4 39.5 65.6 34 75.4-5.6 9.8-44.8-6-44.8-6s1-1.6 1.7-6.8c.3-2.6 0-8.7 0-8.7l25.1 3.4s-8.5-8.1-11.8-18.8c-5.3-17-12.4-40-4.2-38.5z"/></g><g><path class="st26" d="M948.7 165c-.1 0-.1 0 0 0l-25.2-3.1c-.2 0-.3-.2-.3-.3 0-.2.2-.3.3-.3l25.1 3.1c.2 0 .3.2.3.3.1.2-.1.3-.2.3z"/></g><g><path class="st26" d="M937.7 182.5l-17.2-6c-.2-.1-.2-.2-.2-.4.1-.2.2-.2.4-.2l17.1 6c.2.1.2.2.2.4 0 .1-.1.2-.3.2z"/></g><g><path class="st26" d="M941.1 154.9c-.2 0-.3-.1-.3-.3s-3.4-22-2.8-30.1c0-.2.2-.3.3-.3.2 0 .3.2.3.3-.6 8 2.8 29.7 2.8 29.9 0 .3-.1.5-.3.5z"/></g><g><path class="st26" d="M959.2 168.9h-.2c-4.8-2.6-10.4-3.9-10.4-3.9-.1 0-.2-.2-.2-.3s.1-.3.2-.3c3.6-.9 4.9-.8 4.9-.8.2 0 .3.1.3.3s-.1.3-.3.3c0 0-.9 0-3.5.5 2 .5 5.9 1.7 9.3 3.6.2.1.2.3.1.4 0 .1-.1.2-.2.2z"/></g><g><path class="st26" d="M938.6 135.2c-.2 0-.3-.2-.3-.4s1.1-5.2 1.8-7.1c.1-.2.2-.2.4-.2.2.1.2.2.2.4-.7 1.9-1.7 7-1.7 7-.1.2-.2.3-.4.3z"/></g><g><path class="st1" d="M901.5 164.1c-.1.9.4 1.3.4 1.3l6.3-1.1-5.8-.8c0 .1-.9.1-.9.6z"/></g><g><path class="st1" d="M902.4 167.3c-.5 0-1.5.3-1.1 1.3l2.5-1.3c0-.1-1-.1-1.4 0z"/></g><g><path class="st26" d="M907.6 155.5h-2.3c-.4 0-.7-.1-1-.4-.3-.3-.4-.6-.4-1v-.9c0-.8.6-1.4 1.4-1.4h2.3c.8 0 1.4.6 1.4 1.4v.9c0 .8-.7 1.4-1.4 1.4zm0-.6c.4 0 .8-.3.8-.7v-.9c0-.4-.3-.8-.7-.8h-2.3c-.4 0-.7.3-.7.7v.9c0 .2.1.4.2.5.1.1.3.2.5.2l2.2.1zM908.7 157.3h-4.5c-.2 0-.3-.1-.3-.3s.1-.3.3-.3h4.5c.2 0 .3.1.3.3s-.1.3-.3.3z"/></g><g><path class="st1" d="M921.1 70c-1.8 4.6-4.8 7.7-6.7 7s-1.9-5.1-.1-9.7c1.8-4.6 4.8-7.7 6.7-7 1.9.8 1.9 5.1.1 9.7z"/><path class="st31" d="M921.2 64.1c-.2 0-.3-.2-.2-.3 0-.2.1-.8-.2-1.1-.2-.2-.6-.3-1-.2-.2 0-.3-.1-.3-.2 0-.2.1-.3.2-.3.7-.1 1.2 0 1.5.4.6.6.3 1.6.3 1.6 0 .1-.2.2-.3.1zM918.8 71.6c-.1 0-.1 0 0 0-.2-.2-.2-.4-.1-.5 1.3-1.4 2.3-4.9 2.3-5 0-.2.2-.3.3-.2.2 0 .2.2.2.3 0 .2-1 3.8-2.4 5.2-.1.2-.2.2-.3.2z"/></g><g><path class="st40" d="M771.3 400.1c0 2.9.3 5.6-1.1 5.6-1.4 0-4-2.7-4-5.6s.5-8.8 1.9-8.8 3.2 5.9 3.2 8.8z"/></g><g><path class="st40" d="M803.6 400.1c0 2.9 1.2 5.7-.2 5.7s-3.8-2.9-3.8-5.9c0-2.9 0-5.1 1.4-5.1s2.6 2.3 2.6 5.3z"/></g><g><path class="st31" d="M789.8 388.2s10.6 2 12.3 4.8c.6.9-4.1 2-4.1 2l-6.6-1.2-1.6-5.6z"/><path class="st8" d="M790.7 408.7l-11-.3c-1.1 0-1.9-.9-1.9-2l.6-25.5c0-1.1.9-1.9 2-1.9l11 .3c1.1 0 1.9.9 1.9 2l-.6 25.5c-.1 1.1-.9 1.9-2 1.9z"/><path class="st1" d="M801.8 392.8s-5.2-3.5-8.6-1.2c-3 2-3.3 8.6-.5 10.3 1.9 1.1 4.8 1.1 6.5 1 .7 0 1.4-.1 2.1-.3L815 400l-13.2-7.2z"/><path class="st1" d="M795.8 390.8s-14.2.8-14.1 2.3c.1 1.1 4 1.2 7.3 1.1 3.2-.1 6.1 0 6.1 0l.7-3.4zM793.7 394.5s-12.5.2-12.4 1.7c.1 1.1 4 1.2 7.3 1.1 3.2-.1 6.1 0 6.1 0l-1-2.8zM794.4 397.6s-12.5.2-12.4 1.7c.1 1.1 4 1.2 7.3 1.1 3.2-.1 6.1 0 6.1 0l-1-2.8zM797 400.6s-12.5.2-12.4 1.7c.1 1.1 4 1.2 7.3 1.1 3.2-.1 8.5-.5 8.5-.5l-3.4-2.3z"/><g><path class="st31" d="M778.2 388.8s-8.7.9-10.4 2.3c-1 .8 4.1 3.3 4.1 3.3l6.2-1 .1-4.6z"/><path class="st1" d="M767.8 391.1s5.7-2.3 9 .1c2.9 2.1 2.9 8.8 0 10.3-.6.3-1.3.5-2.1.7-3 .7-7.9.6-10.6-.8l-5.7-1.3 9.4-9z"/><path class="st1" d="M773 391.3c-.4-.5.2-1.2.8-1.2 4.1.5 14.6 2 14.5 3.2-.1 1.1-4 1-7.3.7-3.2-.3-6.1-.3-6.1-.3l-1.9-2.4zM776.2 394.1s12.5.8 12.3 2.2c-.1 1.1-4 1-7.3.7-3.2-.3-6.1-.3-6.1-.3l1.1-2.6zM775.4 397.2s12.5.8 12.3 2.2c-.1 1.1-4 1-7.3.7-3.2-.3-6.1-.3-6.1-.3l1.1-2.6zM772.6 400s12.5.8 12.3 2.2c-.1 1.1-4 1-7.3.7-3.2-.3-7.5-.3-7.5-.3l2.5-2.6z"/></g></g><g><path class="st30" d="M768 391.2s-.2 2.6 0 7.6c.2 6.3 2.3 6.9 2.3 6.9v.1l-25.9.2c-4.4-.4-9.1-1-10.3-5.2-3-10.2 5.7-26.7 10.1-36.5 5.5-12.4 19.1-21.4 22.3-23.4.2-.1.4-.3.5-.4.3-.2.6-.4.8-.6.9-.6 1.5-1 1.9-1.2.1-.1.1-.1.2-.1l.1-.1-.2 3.6v.7l-.1 14.8-14.2 33.2 12.5.4z"/></g><g><path class="st30" d="M800.6 392s1.7 3.2 2 5c.8 5.4.8 8.8.8 8.8l25.9.1c4.4-.4 9.1-1 10.3-5.2 3-10.2-6.7-26.5-11.1-36.3-5.5-12.4-22.3-23.9-22.6-24.1-.9-.6-1.4-.8-1.8-1-.1-.1-.2 2.8-.2 2.8v.7l.1 14.8 14.2 33.2-17.6 1.2z"/></g><g><path class="st40" d="M804.8 339.5c0 .1-.1.1-.1.1-.2.2-.4.4-.7.6-3.9 3.4-9.5 6.5-17.3 6.7h-.8c-6.3 0-12-2.1-16.2-4.3-1.1-.6-2.1-1.2-3-1.7-.1-.1-.2-.1-.3-.2.2-.1.4-.3.5-.4.1 0 .1.1.2.1.8.5 1.7 1 2.7 1.5 4.1 2.2 9.8 4.4 16.1 4.4h.7c7.8-.2 13.3-3.4 17.1-6.7l.3-.3c.1-.1.1-.1.2-.1l.6.3z"/></g><g><path class="st40" d="M760.1 380.1s-.1 0 0 0c-.2-.1-.3-.2-.3-.4l5.6-22.3c0-.2.2-.3.4-.2.2 0 .3.2.2.4l-5.6 22.3c0 .1-.2.2-.3.2zM746 391.8c-.2 0-.3-.1-.3-.3 0-.2.1-.3.3-.3 9.8-1 16.8-1.1 22-.3.2 0 .3.2.3.4s-.2.3-.4.3c-5.2-.9-12.2-.8-21.9.2z"/><path class="st40" d="M763 368.3c-.2 0-.3-.1-.3-.3l-.3-7.3c0-.2.1-.3.3-.3s.3.1.3.3l.3 7.3c.1.2-.1.3-.3.3.1 0 .1 0 0 0z"/></g><g><path class="st40" d="M813.2 379.7c-.1 0-.3-.1-.3-.2l-5.2-21.9c0-.2.1-.3.2-.4.2 0 .3.1.4.2l5.2 21.9c0 .2-.1.3-.3.4zM800.8 392.4c-.2 0-.3-.1-.3-.3 0-.2.1-.3.3-.4 9.5-1.5 18.2-1.8 25.8-.9.2 0 .3.2.3.3 0 .2-.2.3-.3.3-7.7-.8-16.3-.5-25.8 1z"/><path class="st40" d="M810.6 368.3c-.2 0-.3-.2-.3-.3l.3-7.3c0-.2.2-.3.3-.3.2 0 .3.2.3.3l-.3 7.3c0 .2-.1.3-.3.3z"/></g><g><path class="st26" d="M783.8 384.9l-2.4-.1c-.4 0-.7-.2-1-.4-.3-.3-.4-.6-.4-1v-.9c0-.4.2-.7.4-1 .3-.3.6-.4 1-.4l2.3.1c.8 0 1.4.6 1.3 1.4v.9c.1.8-.5 1.4-1.2 1.4zm-2.3-3.1c-.4 0-.7.3-.7.7v.9c0 .2.1.4.2.5.1.1.3.2.5.2l2.3.1c.4 0 .8-.3.8-.7v-.9c0-.2-.1-.4-.2-.5-.1-.1-.3-.2-.5-.2l-2.4-.1zM784.9 386.7l-4.6-.1c-.2 0-.3-.1-.3-.3 0-.2.1-.3.3-.3l4.5.1c.2 0 .3.1.3.3.1.2-.1.3-.2.3z"/></g><g class="st7"><path class="st8" d="M861.7 12.7c-2.8 0-5-2.2-5-5s2.2-5 5-5 5 2.2 5 5-2.2 5-5 5zm0-8.7c-2.1 0-3.7 1.7-3.7 3.7s1.7 3.7 3.7 3.7 3.7-1.7 3.7-3.7-1.6-3.7-3.7-3.7z"/></g><g class="st7"><path class="st8" d="M983.8 150.2c-1.6 0-3-1.3-3-3 0-1.6 1.3-3 3-3 1.6 0 3 1.3 3 3-.1 1.7-1.4 3-3 3zm0-4.7c-.9 0-1.7.8-1.7 1.7s.8 1.7 1.7 1.7 1.7-.8 1.7-1.7-.8-1.7-1.7-1.7z"/></g><g class="st7"><path class="st8" d="M413.4 88.6c-2.3 0-4.1-1.9-4.1-4.1 0-2.3 1.9-4.1 4.1-4.1 2.3 0 4.1 1.9 4.1 4.1 0 2.3-1.8 4.1-4.1 4.1zm0-7c-1.6 0-2.9 1.3-2.9 2.9s1.3 2.9 2.9 2.9 2.9-1.3 2.9-2.9-1.3-2.9-2.9-2.9z"/></g></g></svg>
